<?xml version="1.0" encoding="utf-8"?>
<!-- Generator: Adobe Illustrator 25.3.1, SVG Export Plug-In . SVG Version: 6.00 Build 0)  -->
<svg version="1.1" id="图层_1" xmlns="http://www.w3.org/2000/svg" xmlns:xlink="http://www.w3.org/1999/xlink" x="0px" y="0px"
	 viewBox="0 0 210 210" style="enable-background:new 0 0 210 210;" xml:space="preserve">
<style type="text/css">
	.st0{fill:#FFFFFF;}
</style>
<path class="st0" d="M105,1C47.6,1,1,47.6,1,105c0,57.4,46.6,104,104,104c57.4,0,104-46.6,104-104C209,47.6,162.4,1,105,1z
	 M139.8,20.9L139.8,20.9l-15,36.1c-12.7-5.3-27.1-5.3-39.8,0L78,40l-7.9-19.1C92.4,11.7,117.5,11.7,139.8,20.9z M56.9,124.9
	l-36.1,15c-9.2-22.3-9.2-47.4,0-69.7v0L40,78.1l16.9,7C51.6,97.8,51.6,112.2,56.9,124.9z M105,196.1c-12,0-23.8-2.4-34.9-7l4.7-11.2
	l10.3-24.8c12.7,5.3,27.1,5.3,39.8,0l15,36.1C128.8,193.8,117,196.1,105,196.1z M105,144c-21.6,0-39-17.5-39-39s17.5-39,39-39
	c21.6,0,39,17.5,39,39C144,126.5,126.5,144,105,144z M153,125c5.3-12.7,5.3-27.1,0-39.8l24.8-10.3l11.2-4.7c4.6,11,7,22.9,6.9,34.9
	c0,12-2.3,23.8-6.8,34.9L153,125z"/>
</svg>
