<?xml version="1.0" encoding="utf-8"?>
<!-- Generator: Adobe Illustrator 25.3.1, SVG Export Plug-In . SVG Version: 6.00 Build 0)  -->
<svg version="1.1" id="图层_1" xmlns="http://www.w3.org/2000/svg" xmlns:xlink="http://www.w3.org/1999/xlink" x="0px" y="0px"
	 viewBox="0 0 120 80" style="enable-background:new 0 0 120 80;" xml:space="preserve">
<style type="text/css">
	.st0{fill:#FFFFFF;}
	.st1{fill:#CFD3DB;}
	.st2{fill:#0065FF;}
	.st3{fill:#EBECF0;}
	.st4{fill:#FF5630;}
	.st5{fill:#FFAB00;}
	.st6{fill:#2684FF;}
	.st7{fill:url(#SVGID_1_);}
	.st8{clip-path:url(#SVGID_3_);}
	.st9{fill:#FFFFFF;fill-opacity:1.000000e-02;}
	.st10{fill:#0052CC;}
	.st11{fill:url(#SVGID_4_);}
	.st12{fill:url(#SVGID_5_);}
	.st13{opacity:0.1;fill:#172B4D;enable-background:new    ;}
	.st14{fill:url(#SVGID_6_);}
	.st15{fill:#E3FCEF;}
	.st16{fill:#172B4D;}
	.st17{opacity:0.4;}
	.st18{opacity:0.4;fill:url(#SVGID_7_);enable-background:new    ;}
	.st19{opacity:0.4;fill:url(#SVGID_8_);enable-background:new    ;}
	.st20{opacity:0.4;fill:url(#SVGID_9_);enable-background:new    ;}
	.st21{opacity:0.4;fill:url(#SVGID_10_);enable-background:new    ;}
	.st22{opacity:0.4;fill:url(#SVGID_11_);enable-background:new    ;}
	.st23{opacity:0.4;fill:url(#SVGID_12_);enable-background:new    ;}
	.st24{opacity:0.4;fill:url(#SVGID_13_);enable-background:new    ;}
	.st25{opacity:0.4;fill:url(#SVGID_14_);enable-background:new    ;}
	.st26{fill:url(#SVGID_15_);}
	.st27{opacity:0.1;}
	.st28{opacity:0.1;fill:url(#SVGID_16_);enable-background:new    ;}
	.st29{opacity:0.1;fill:url(#SVGID_17_);enable-background:new    ;}
	.st30{opacity:0.1;fill:url(#SVGID_18_);enable-background:new    ;}
	.st31{opacity:0.1;fill:url(#SVGID_19_);enable-background:new    ;}
	.st32{opacity:0.1;fill:url(#SVGID_20_);enable-background:new    ;}
	.st33{opacity:0.1;fill:url(#SVGID_21_);enable-background:new    ;}
	.st34{opacity:0.1;fill:url(#SVGID_22_);enable-background:new    ;}
	.st35{fill:#79F2C0;}
</style>
<rect class="st0" width="120" height="80"/>
<path class="st1" d="M0,4c0-2.2,1.8-4,4-4h112c2.2,0,4,1.8,4,4v72c0,2.2-1.8,4-4,4H4c-2.2,0-4-1.8-4-4V4z"/>
<path class="st2" d="M0,4c0-2.2,1.8-4,4-4h12v80H4c-2.2,0-4-1.8-4-4V4z"/>
<path class="st3" d="M0,4c0-2.2,1.8-4,4-4h112c2.2,0,4,1.8,4,4v4H0V4z"/>
<path class="st4" d="M4,2L4,2c1.1,0,2,0.9,2,2l0,0c0,1.1-0.9,2-2,2l0,0C2.9,6,2,5.1,2,4l0,0C2,2.9,2.9,2,4,2z"/>
<path class="st5" d="M10,2L10,2c1.1,0,2,0.9,2,2l0,0c0,1.1-0.9,2-2,2l0,0C8.9,6,8,5.1,8,4l0,0C8,2.9,8.9,2,10,2z"/>
<path class="st6" d="M16,2L16,2c1.1,0,2,0.9,2,2l0,0c0,1.1-0.9,2-2,2l0,0c-1.1,0-2-0.9-2-2l0,0C14,2.9,14.9,2,16,2z"/>
<linearGradient id="SVGID_1_" gradientUnits="userSpaceOnUse" x1="68" y1="67" x2="68" y2="2" gradientTransform="matrix(1 0 0 -1 0 82)">
	<stop  offset="0" style="stop-color:#EBECF0"/>
	<stop  offset="1" style="stop-color:#EBECF0;stop-opacity:0"/>
</linearGradient>
<path class="st7" d="M16,80V32.2c11.5,4.5,27.5-0.5,53-9c20.4-6.8,42.7-9.1,51-8V76c0,2.2-1.8,4-4,4H16z"/>
<g>
	<defs>
		<rect id="SVGID_2_" x="40" y="11" width="50.5" height="61"/>
	</defs>
	<clipPath id="SVGID_3_">
		<use xlink:href="#SVGID_2_"  style="overflow:visible;"/>
	</clipPath>
	<g class="st8">
		<rect x="40" y="11" class="st9" width="50.5" height="61"/>
		<path class="st6" d="M89.5,39h-4.7c-0.3,0-0.5-0.1-0.7-0.3c-0.2-0.2-0.3-0.4-0.3-0.7c0-0.3,0.1-0.5,0.3-0.7
			c0.2-0.2,0.4-0.3,0.7-0.3h4.7c0.3,0,0.5,0.1,0.7,0.3c0.2,0.2,0.3,0.4,0.3,0.7c0,0.3-0.1,0.5-0.3,0.7C90,38.9,89.8,39,89.5,39
			L89.5,39z"/>
		<path class="st10" d="M78.5,39h-4.7c-0.3,0-0.5-0.1-0.7-0.3c-0.2-0.2-0.3-0.4-0.3-0.7c0-0.3,0.1-0.5,0.3-0.7
			c0.2-0.2,0.4-0.3,0.7-0.3h4.7c0.3,0,0.5,0.1,0.7,0.3c0.2,0.2,0.3,0.4,0.3,0.7c0,0.3-0.1,0.5-0.3,0.7C79,38.9,78.8,39,78.5,39
			L78.5,39z"/>
		<path class="st10" d="M65.6,67.2c-0.3-0.1-0.6-0.3-0.7-0.6c-0.2-0.3-0.2-0.6-0.1-0.9l7.9-27.8c0.1-0.2,0.2-0.5,0.4-0.6
			c0.2-0.2,0.4-0.3,0.7-0.3c0,0,0.1,0,0.1,0c0,0,0.1,0.1,0.1,0.1c0,0,0,0.1,0.1,0.1c0,0,0,0.1,0,0.1L65.6,67.2z"/>
		<path class="st6" d="M74.1,37.1c0.3,0.1,0.6,0.3,0.7,0.6s0.2,0.6,0.1,0.9l-7.9,27.8c-0.1,0.3-0.3,0.6-0.6,0.7
			c-0.3,0.2-0.6,0.2-0.9,0.1L74.1,37.1z"/>
		<path class="st10" d="M76.6,67.2c-0.2,0-0.3-0.1-0.4-0.2s-0.2-0.2-0.3-0.4s-0.1-0.3-0.1-0.4c0-0.2,0-0.3,0-0.5l7.9-27.8
			c0.1-0.2,0.2-0.5,0.4-0.6c0.2-0.2,0.4-0.2,0.7-0.3c0,0,0.1,0,0.1,0c0,0,0.1,0.1,0.1,0.1c0,0,0,0.1,0.1,0.1c0,0,0,0.1,0,0.1
			L76.6,67.2z"/>
		<path class="st6" d="M85.1,37.1c0.3,0.1,0.6,0.3,0.7,0.6c0.2,0.3,0.2,0.6,0.1,0.9l-7.9,27.8c-0.1,0.3-0.3,0.6-0.6,0.7
			c-0.3,0.2-0.6,0.2-0.9,0.1L85.1,37.1z"/>
		
			<linearGradient id="SVGID_4_" gradientUnits="userSpaceOnUse" x1="51.1586" y1="38.1121" x2="76.5158" y2="63.4693" gradientTransform="matrix(1 0 0 -1 0 82)">
			<stop  offset="0.24" style="stop-color:#36B37E"/>
			<stop  offset="0.51" style="stop-color:#54CF9B"/>
			<stop  offset="0.82" style="stop-color:#6FE9B6"/>
			<stop  offset="1" style="stop-color:#79F2C0"/>
		</linearGradient>
		<path class="st11" d="M63.8,49.1c9.9,0,17.9-8,17.9-17.9s-8-17.9-17.9-17.9s-17.9,8-17.9,17.9S53.9,49.1,63.8,49.1z"/>
		
			<linearGradient id="SVGID_5_" gradientUnits="userSpaceOnUse" x1="44.496" y1="24.1006" x2="59.407" y2="39.0116" gradientTransform="matrix(1 0 0 -1 0 82)">
			<stop  offset="3.000000e-02" style="stop-color:#97A0AF"/>
			<stop  offset="0.76" style="stop-color:#B3BAC5"/>
		</linearGradient>
		<path class="st12" d="M62.7,60.4H47.8c-0.4,0-0.8-0.1-1.2-0.4c-0.3-0.3-0.6-0.6-0.7-1l-5.2-18.2h16.4L62.7,60.4z"/>
		<path class="st13" d="M57.8,42.9H41.4l0.6,2h16.4L57.8,42.9z"/>
		
			<linearGradient id="SVGID_6_" gradientUnits="userSpaceOnUse" x1="58.742" y1="23.4591" x2="80.9088" y2="45.626" gradientTransform="matrix(1 0 0 -1 0 82)">
			<stop  offset="0" style="stop-color:#C1C7D0"/>
			<stop  offset="0.2" style="stop-color:#CFD3D9"/>
			<stop  offset="0.48" style="stop-color:#DBDDE2"/>
			<stop  offset="0.76" style="stop-color:#DFE1E5"/>
		</linearGradient>
		<path class="st14" d="M77.9,60.4H61.4c-0.4,0-0.8-0.1-1.2-0.4c-0.3-0.3-0.6-0.6-0.7-1l-5.2-18.2h30.9l-5,17.8
			c-0.1,0.5-0.5,1-0.9,1.3C79,60.3,78.4,60.4,77.9,60.4L77.9,60.4z"/>
		<path class="st13" d="M84.7,42.9H55l0.6,2h28.6L84.7,42.9z"/>
		<path class="st10" d="M76.6,64.8H47.7c-0.7,0-1.2,0.5-1.2,1.2s0.5,1.2,1.2,1.2h28.9c0.7,0,1.2-0.5,1.2-1.2S77.3,64.8,76.6,64.8z"
			/>
		<path class="st6" d="M85.1,43.7H53v-2.9h32.7c0.1,0,0.2,0,0.3,0.1c0.1,0,0.1,0.1,0.2,0.2c0.1,0.1,0.1,0.2,0.1,0.2
			c0,0.1,0,0.2,0,0.3l-0.7,1.8c0,0.1-0.1,0.2-0.2,0.3C85.3,43.7,85.2,43.7,85.1,43.7z"/>
		<path class="st10" d="M54.3,43.7H41.2c-0.1,0-0.2,0-0.3-0.1c-0.1-0.1-0.2-0.1-0.2-0.2L40,41.5c0-0.1,0-0.2,0-0.3
			c0-0.1,0-0.2,0.1-0.2c0.1-0.1,0.1-0.1,0.2-0.2c0.1,0,0.2-0.1,0.3-0.1h12.7L54.3,43.7z"/>
		<path class="st15" d="M61.7,38.4l-7-7c-0.1-0.1-0.1-0.2-0.2-0.3c0-0.1-0.1-0.2-0.1-0.3s0-0.2,0.1-0.3c0-0.1,0.1-0.2,0.2-0.3
			l2.4-2.4c0.1-0.1,0.2-0.1,0.3-0.2c0.1,0,0.2-0.1,0.3-0.1c0.1,0,0.2,0,0.3,0.1c0.1,0,0.2,0.1,0.3,0.2l4,4l8.7-8.8
			c0.1-0.1,0.2-0.1,0.3-0.2c0.1,0,0.2-0.1,0.3-0.1c0.1,0,0.2,0,0.3,0.1c0.1,0,0.2,0.1,0.3,0.2l2.4,2.4c0.1,0.1,0.1,0.2,0.2,0.3
			c0,0.1,0.1,0.2,0.1,0.3c0,0.1,0,0.2-0.1,0.3c0,0.1-0.1,0.2-0.2,0.3L62.9,38.4c-0.1,0.1-0.2,0.1-0.3,0.2c-0.1,0-0.2,0.1-0.3,0.1
			c-0.1,0-0.2,0-0.3-0.1C61.9,38.5,61.8,38.5,61.7,38.4z"/>
		<path class="st10" d="M50.9,68v-0.7h-1.2V68c0,0.1,0,0.3-0.1,0.4c-0.1,0.1-0.2,0.2-0.3,0.3c-0.3,0.2-0.5,0.4-0.6,0.7
			c-0.2,0.3-0.2,0.6-0.2,0.9c0,0.5,0.2,0.9,0.5,1.2c0.3,0.3,0.8,0.5,1.2,0.5c0.4,0,0.8-0.1,1.1-0.3c0.3-0.2,0.6-0.6,0.7-0.9
			c0.1-0.4,0.1-0.8,0-1.2c-0.1-0.4-0.4-0.7-0.7-0.9c-0.1-0.1-0.2-0.2-0.3-0.3C50.9,68.2,50.9,68.1,50.9,68z"/>
		<path class="st16" d="M48.5,70.2c0,0.5,0.2,0.9,0.5,1.2c0.3,0.3,0.8,0.5,1.2,0.5c0.2,0,0.5,0,0.7-0.1c0.2-0.1,0.4-0.2,0.6-0.4
			c0.2-0.2,0.3-0.4,0.4-0.6c0.1-0.2,0.1-0.5,0.1-0.7"/>
		<path class="st16" d="M49.1,67.2h2.3c0,0.1-0.1,0.3-0.2,0.4c-0.1,0.1-0.2,0.2-0.4,0.2h-1.2c-0.1,0-0.3-0.1-0.4-0.2
			C49.1,67.5,49.1,67.4,49.1,67.2L49.1,67.2z"/>
		<path class="st6" d="M76.9,64.8H60.8c-0.7,0-1.2,0.5-1.2,1.2s0.5,1.2,1.2,1.2h16.1c0.7,0,1.2-0.5,1.2-1.2S77.6,64.8,76.9,64.8z"/>
		<path class="st10" d="M63.3,67.7v-0.5h-1.2v0.4c0,0.2,0,0.4-0.1,0.6c-0.1,0.2-0.2,0.3-0.4,0.5c-0.2,0.2-0.4,0.4-0.5,0.7
			c-0.1,0.3-0.2,0.6-0.2,0.8c0,0.5,0.2,0.9,0.5,1.2c0.3,0.3,0.8,0.5,1.2,0.5c0.4,0,0.8-0.1,1.1-0.3c0.3-0.2,0.5-0.5,0.7-0.9
			c0.1-0.4,0.1-0.8,0-1.1c-0.1-0.4-0.3-0.7-0.6-0.9c-0.2-0.1-0.3-0.3-0.4-0.5C63.4,68.1,63.3,67.9,63.3,67.7z"/>
		<path class="st16" d="M60.9,70.2c0,0.5,0.2,0.9,0.5,1.2c0.3,0.3,0.8,0.5,1.2,0.5c0.2,0,0.5,0,0.7-0.1c0.2-0.1,0.4-0.2,0.6-0.4
			c0.2-0.2,0.3-0.4,0.4-0.6c0.1-0.2,0.1-0.5,0.1-0.7L60.9,70.2z"/>
		<path class="st10" d="M76.2,67.7v-0.5H75v0.4c0,0.2,0,0.4-0.1,0.6c-0.1,0.2-0.2,0.3-0.4,0.5c-0.2,0.2-0.4,0.4-0.6,0.7
			c-0.1,0.3-0.2,0.6-0.2,0.8c0,0.5,0.2,0.9,0.5,1.2c0.3,0.3,0.8,0.5,1.2,0.5c0.2,0,0.5,0,0.7-0.1c0.2-0.1,0.4-0.2,0.6-0.4
			c0.2-0.2,0.3-0.4,0.4-0.6c0.1-0.2,0.1-0.5,0.1-0.7c0-0.3-0.1-0.6-0.2-0.8c-0.1-0.3-0.3-0.5-0.5-0.6c-0.2-0.1-0.3-0.3-0.4-0.5
			C76.2,68.1,76.2,67.9,76.2,67.7z"/>
		<path class="st16" d="M73.8,70.2c0,0.5,0.2,0.9,0.5,1.2c0.3,0.3,0.8,0.5,1.2,0.5c0.2,0,0.5,0,0.7-0.1c0.2-0.1,0.4-0.2,0.6-0.4
			c0.2-0.2,0.3-0.4,0.4-0.6c0.1-0.2,0.1-0.5,0.1-0.7"/>
		<path class="st16" d="M61.6,67.2h2.3c0,0.1-0.1,0.3-0.2,0.4c-0.1,0.1-0.2,0.2-0.4,0.2h-1.2c-0.1,0-0.3-0.1-0.4-0.2
			C61.6,67.5,61.6,67.4,61.6,67.2L61.6,67.2L61.6,67.2z"/>
		<path class="st16" d="M74.4,67.2h2.3c0,0.1-0.1,0.3-0.2,0.4c-0.1,0.1-0.2,0.2-0.4,0.2H75c-0.1,0-0.3-0.1-0.4-0.2
			C74.5,67.5,74.4,67.4,74.4,67.2L74.4,67.2L74.4,67.2z"/>
		<g class="st17">
			<g class="st17">
				
					<linearGradient id="SVGID_7_" gradientUnits="userSpaceOnUse" x1="60.093" y1="34.8093" x2="79.6512" y2="34.8093" gradientTransform="matrix(1 0 0 -1 0 82)">
					<stop  offset="0" style="stop-color:#FFFFFF;stop-opacity:0"/>
					<stop  offset="0.23" style="stop-color:#FFFFFF"/>
					<stop  offset="0.55" style="stop-color:#FFFFFF"/>
					<stop  offset="0.81" style="stop-color:#FFFFFF"/>
					<stop  offset="0.87" style="stop-color:#FFFFFF;stop-opacity:0.65"/>
					<stop  offset="0.93" style="stop-color:#FFFFFF;stop-opacity:0.3"/>
					<stop  offset="0.98" style="stop-color:#FFFFFF;stop-opacity:8.000000e-02"/>
					<stop  offset="1" style="stop-color:#FFFFFF;stop-opacity:0"/>
				</linearGradient>
				<path class="st18" d="M79.7,47H60.1v0.4h19.6V47z"/>
				
					<linearGradient id="SVGID_8_" gradientUnits="userSpaceOnUse" x1="1692.22" y1="31.7628" x2="3136.6499" y2="31.7628" gradientTransform="matrix(1 0 0 -1 0 82)">
					<stop  offset="0" style="stop-color:#FFFFFF;stop-opacity:0"/>
					<stop  offset="0.23" style="stop-color:#FFFFFF"/>
					<stop  offset="0.55" style="stop-color:#FFFFFF"/>
					<stop  offset="0.81" style="stop-color:#FFFFFF"/>
					<stop  offset="0.87" style="stop-color:#FFFFFF;stop-opacity:0.65"/>
					<stop  offset="0.93" style="stop-color:#FFFFFF;stop-opacity:0.3"/>
					<stop  offset="0.98" style="stop-color:#FFFFFF;stop-opacity:8.000000e-02"/>
					<stop  offset="1" style="stop-color:#FFFFFF;stop-opacity:0"/>
				</linearGradient>
				<path class="st19" d="M79,50H60.7v0.4H79V50z"/>
				
					<linearGradient id="SVGID_9_" gradientUnits="userSpaceOnUse" x1="1628.41" y1="28.7162" x2="2885.0901" y2="28.7162" gradientTransform="matrix(1 0 0 -1 0 82)">
					<stop  offset="0" style="stop-color:#FFFFFF;stop-opacity:0"/>
					<stop  offset="0.23" style="stop-color:#FFFFFF"/>
					<stop  offset="0.55" style="stop-color:#FFFFFF"/>
					<stop  offset="0.81" style="stop-color:#FFFFFF"/>
					<stop  offset="0.87" style="stop-color:#FFFFFF;stop-opacity:0.65"/>
					<stop  offset="0.93" style="stop-color:#FFFFFF;stop-opacity:0.3"/>
					<stop  offset="0.98" style="stop-color:#FFFFFF;stop-opacity:8.000000e-02"/>
					<stop  offset="1" style="stop-color:#FFFFFF;stop-opacity:0"/>
				</linearGradient>
				<path class="st20" d="M78.4,53.1H61.3v0.4h17.1V53.1z"/>
				
					<linearGradient id="SVGID_10_" gradientUnits="userSpaceOnUse" x1="1558.05" y1="25.6465" x2="2640.05" y2="25.6465" gradientTransform="matrix(1 0 0 -1 0 82)">
					<stop  offset="0" style="stop-color:#FFFFFF;stop-opacity:0"/>
					<stop  offset="0.23" style="stop-color:#FFFFFF"/>
					<stop  offset="0.55" style="stop-color:#FFFFFF"/>
					<stop  offset="0.81" style="stop-color:#FFFFFF"/>
					<stop  offset="0.87" style="stop-color:#FFFFFF;stop-opacity:0.65"/>
					<stop  offset="0.93" style="stop-color:#FFFFFF;stop-opacity:0.3"/>
					<stop  offset="0.98" style="stop-color:#FFFFFF;stop-opacity:8.000000e-02"/>
					<stop  offset="1" style="stop-color:#FFFFFF;stop-opacity:0"/>
				</linearGradient>
				<path class="st21" d="M77.8,56.1H61.9v0.4h15.9V56.1z"/>
			</g>
			<g class="st17">
				
					<linearGradient id="SVGID_11_" gradientUnits="userSpaceOnUse" x1="64.5593" y1="22.516" x2="64.5593" y2="37.8894" gradientTransform="matrix(1 0 0 -1 0 82)">
					<stop  offset="0" style="stop-color:#FFFFFF;stop-opacity:0"/>
					<stop  offset="0.21" style="stop-color:#FFFFFF"/>
					<stop  offset="0.55" style="stop-color:#FFFFFF"/>
					<stop  offset="0.82" style="stop-color:#FFFFFF"/>
					<stop  offset="0.88" style="stop-color:#FFFFFF;stop-opacity:0.65"/>
					<stop  offset="0.94" style="stop-color:#FFFFFF;stop-opacity:0.3"/>
					<stop  offset="0.98" style="stop-color:#FFFFFF;stop-opacity:8.000000e-02"/>
					<stop  offset="1" style="stop-color:#FFFFFF;stop-opacity:0"/>
				</linearGradient>
				<path class="st22" d="M63.8,44.1l-0.4,0.1l1.9,15.3l0.4-0.1L63.8,44.1z"/>
				
					<linearGradient id="SVGID_12_" gradientUnits="userSpaceOnUse" x1="68.0793" y1="-3158.0801" x2="68.0793" y2="-2146.29" gradientTransform="matrix(1 0 0 -1 0 82)">
					<stop  offset="0" style="stop-color:#FFFFFF;stop-opacity:0"/>
					<stop  offset="0.21" style="stop-color:#FFFFFF"/>
					<stop  offset="0.55" style="stop-color:#FFFFFF"/>
					<stop  offset="0.82" style="stop-color:#FFFFFF"/>
					<stop  offset="0.88" style="stop-color:#FFFFFF;stop-opacity:0.65"/>
					<stop  offset="0.94" style="stop-color:#FFFFFF;stop-opacity:0.3"/>
					<stop  offset="0.98" style="stop-color:#FFFFFF;stop-opacity:8.000000e-02"/>
					<stop  offset="1" style="stop-color:#FFFFFF;stop-opacity:0"/>
				</linearGradient>
				<path class="st23" d="M68,44.1l-0.4,0l0.6,15.3l0.4,0L68,44.1z"/>
				
					<linearGradient id="SVGID_13_" gradientUnits="userSpaceOnUse" x1="71.6369" y1="-58.736" x2="71.6369" y2="-30.507" gradientTransform="matrix(1 0 0 -1 0 82)">
					<stop  offset="0" style="stop-color:#FFFFFF;stop-opacity:0"/>
					<stop  offset="0.21" style="stop-color:#FFFFFF"/>
					<stop  offset="0.55" style="stop-color:#FFFFFF"/>
					<stop  offset="0.82" style="stop-color:#FFFFFF"/>
					<stop  offset="0.88" style="stop-color:#FFFFFF;stop-opacity:0.65"/>
					<stop  offset="0.94" style="stop-color:#FFFFFF;stop-opacity:0.3"/>
					<stop  offset="0.98" style="stop-color:#FFFFFF;stop-opacity:8.000000e-02"/>
					<stop  offset="1" style="stop-color:#FFFFFF;stop-opacity:0"/>
				</linearGradient>
				<path class="st24" d="M71.7,44.1l-0.6,15.3l0.4,0l0.6-15.3L71.7,44.1z"/>
				
					<linearGradient id="SVGID_14_" gradientUnits="userSpaceOnUse" x1="75.1921" y1="-58.785" x2="75.1921" y2="-30.496" gradientTransform="matrix(1 0 0 -1 0 82)">
					<stop  offset="0" style="stop-color:#FFFFFF;stop-opacity:0"/>
					<stop  offset="0.21" style="stop-color:#FFFFFF"/>
					<stop  offset="0.55" style="stop-color:#FFFFFF"/>
					<stop  offset="0.82" style="stop-color:#FFFFFF"/>
					<stop  offset="0.88" style="stop-color:#FFFFFF;stop-opacity:0.65"/>
					<stop  offset="0.94" style="stop-color:#FFFFFF;stop-opacity:0.3"/>
					<stop  offset="0.98" style="stop-color:#FFFFFF;stop-opacity:8.000000e-02"/>
					<stop  offset="1" style="stop-color:#FFFFFF;stop-opacity:0"/>
				</linearGradient>
				<path class="st25" d="M75.9,44.1l-1.9,15.3l0.4,0.1l1.9-15.3L75.9,44.1z"/>
			</g>
		</g>
		<path class="st13" d="M70.3,57c2.7,0,4.9-2.2,4.9-4.9s-2.2-4.9-4.9-4.9s-4.9,2.2-4.9,4.9S67.6,57,70.3,57z"/>
		
			<linearGradient id="SVGID_15_" gradientUnits="userSpaceOnUse" x1="66.7698" y1="27.0953" x2="73.6884" y2="34.0139" gradientTransform="matrix(1 0 0 -1 0 82)">
			<stop  offset="0" style="stop-color:#0052CC"/>
			<stop  offset="0.53" style="stop-color:#166FEA"/>
			<stop  offset="1" style="stop-color:#2684FF"/>
		</linearGradient>
		<path class="st26" d="M70.2,56.3c2.7,0,4.9-2.2,4.9-4.9c0-2.7-2.2-4.9-4.9-4.9c-2.7,0-4.9,2.2-4.9,4.9
			C65.3,54.1,67.5,56.3,70.2,56.3z"/>
		<g class="st27">
			
				<linearGradient id="SVGID_16_" gradientUnits="userSpaceOnUse" x1="47.1529" y1="24.3392" x2="56.7218" y2="26.5401" gradientTransform="matrix(1 0 0 -1 0 82)">
				<stop  offset="0" style="stop-color:#091E42;stop-opacity:0"/>
				<stop  offset="0.21" style="stop-color:#091E42"/>
				<stop  offset="0.55" style="stop-color:#091E42"/>
				<stop  offset="0.82" style="stop-color:#091E42"/>
				<stop  offset="0.93" style="stop-color:#091E42;stop-opacity:0.32"/>
				<stop  offset="1" style="stop-color:#091E42;stop-opacity:0"/>
			</linearGradient>
			<path class="st28" d="M56.8,56.4h-10v0.4h10V56.4z"/>
			
				<linearGradient id="SVGID_17_" gradientUnits="userSpaceOnUse" x1="-6905.6802" y1="28.6233" x2="-6473.3901" y2="28.6233" gradientTransform="matrix(1 0 0 -1 0 82)">
				<stop  offset="0" style="stop-color:#091E42;stop-opacity:0"/>
				<stop  offset="0.21" style="stop-color:#091E42"/>
				<stop  offset="0.55" style="stop-color:#091E42"/>
				<stop  offset="0.82" style="stop-color:#091E42"/>
				<stop  offset="0.93" style="stop-color:#091E42;stop-opacity:0.32"/>
				<stop  offset="1" style="stop-color:#091E42;stop-opacity:0"/>
			</linearGradient>
			<path class="st29" d="M56.1,53.2h-10v0.4h10V53.2z"/>
			
				<linearGradient id="SVGID_18_" gradientUnits="userSpaceOnUse" x1="-6906.4199" y1="31.8326" x2="-6474.1299" y2="31.8326" gradientTransform="matrix(1 0 0 -1 0 82)">
				<stop  offset="0" style="stop-color:#091E42;stop-opacity:0"/>
				<stop  offset="0.21" style="stop-color:#091E42"/>
				<stop  offset="0.55" style="stop-color:#091E42"/>
				<stop  offset="0.82" style="stop-color:#091E42"/>
				<stop  offset="0.93" style="stop-color:#091E42;stop-opacity:0.32"/>
				<stop  offset="1" style="stop-color:#091E42;stop-opacity:0"/>
			</linearGradient>
			<path class="st30" d="M55.3,50h-10v0.4h10V50z"/>
			
				<linearGradient id="SVGID_19_" gradientUnits="userSpaceOnUse" x1="-6907.1499" y1="35.0418" x2="-6474.8501" y2="35.0418" gradientTransform="matrix(1 0 0 -1 0 82)">
				<stop  offset="0" style="stop-color:#091E42;stop-opacity:0"/>
				<stop  offset="0.21" style="stop-color:#091E42"/>
				<stop  offset="0.55" style="stop-color:#091E42"/>
				<stop  offset="0.82" style="stop-color:#091E42"/>
				<stop  offset="0.93" style="stop-color:#091E42;stop-opacity:0.32"/>
				<stop  offset="1" style="stop-color:#091E42;stop-opacity:0"/>
			</linearGradient>
			<path class="st31" d="M54.6,46.7h-10v0.4h10V46.7z"/>
			
				<linearGradient id="SVGID_20_" gradientUnits="userSpaceOnUse" x1="62.143" y1="-3437.0554" x2="59.187" y2="-2288.5054" gradientTransform="matrix(1 0 0 -1 0 82)">
				<stop  offset="0" style="stop-color:#091E42;stop-opacity:0"/>
				<stop  offset="0.21" style="stop-color:#091E42"/>
				<stop  offset="0.55" style="stop-color:#091E42"/>
				<stop  offset="0.82" style="stop-color:#091E42"/>
				<stop  offset="0.93" style="stop-color:#091E42;stop-opacity:0.32"/>
				<stop  offset="1" style="stop-color:#091E42;stop-opacity:0"/>
			</linearGradient>
			<path class="st32" d="M51.6,43.7l-0.4,0.1l3.6,16.1l0.4-0.1L51.6,43.7z"/>
			
				<linearGradient id="SVGID_21_" gradientUnits="userSpaceOnUse" x1="59.6473" y1="-3437.054" x2="56.6914" y2="-2288.5139" gradientTransform="matrix(1 0 0 -1 0 82)">
				<stop  offset="0" style="stop-color:#091E42;stop-opacity:0"/>
				<stop  offset="0.21" style="stop-color:#091E42"/>
				<stop  offset="0.55" style="stop-color:#091E42"/>
				<stop  offset="0.82" style="stop-color:#091E42"/>
				<stop  offset="0.93" style="stop-color:#091E42;stop-opacity:0.32"/>
				<stop  offset="1" style="stop-color:#091E42;stop-opacity:0"/>
			</linearGradient>
			<path class="st33" d="M49.1,43.7l-0.4,0.1l3.6,16.1l0.4-0.1L49.1,43.7z"/>
			
				<linearGradient id="SVGID_22_" gradientUnits="userSpaceOnUse" x1="57.151" y1="-3437.0623" x2="54.195" y2="-2288.5122" gradientTransform="matrix(1 0 0 -1 0 82)">
				<stop  offset="0" style="stop-color:#091E42;stop-opacity:0"/>
				<stop  offset="0.21" style="stop-color:#091E42"/>
				<stop  offset="0.55" style="stop-color:#091E42"/>
				<stop  offset="0.82" style="stop-color:#091E42"/>
				<stop  offset="0.93" style="stop-color:#091E42;stop-opacity:0.32"/>
				<stop  offset="1" style="stop-color:#091E42;stop-opacity:0"/>
			</linearGradient>
			<path class="st34" d="M46.6,43.7l-0.4,0.1l3.6,16.1l0.4-0.1L46.6,43.7z"/>
		</g>
		<path class="st35" d="M47.1,14.1c0.8-0.2,1.5-0.6,2-1.1c0.6-0.6,0.9-1.3,1.1-2l0,0c0.2,0.8,0.6,1.5,1.1,2c0.6,0.6,1.3,0.9,2,1.1
			l0,0c-0.8,0.2-1.5,0.6-2,1.1s-0.9,1.3-1.1,2l0,0c-0.2-0.8-0.6-1.5-1.1-2C48.6,14.7,47.9,14.3,47.1,14.1z"/>
		<path class="st35" d="M43.6,18.7c0.4-0.1,0.7-0.3,1-0.6c0.3-0.3,0.5-0.6,0.5-1c0.1,0.4,0.3,0.7,0.6,1c0.3,0.3,0.6,0.5,1,0.6
			c-0.4,0.1-0.7,0.3-1,0.6c-0.3,0.3-0.5,0.6-0.6,1c-0.1-0.4-0.3-0.7-0.5-1C44.4,19,44,18.8,43.6,18.7L43.6,18.7z"/>
		<path class="st15" d="M79.7,34.8c-0.4-0.1-0.7-0.3-1-0.6s-0.5-0.6-0.6-1l0,0c-0.1,0.4-0.3,0.7-0.6,1c-0.3,0.3-0.6,0.5-1,0.6l0,0
			c0.4,0.1,0.7,0.3,1,0.6c0.3,0.3,0.5,0.6,0.6,1l0,0c0.1-0.4,0.3-0.7,0.6-1C78.9,35.1,79.3,34.9,79.7,34.8L79.7,34.8z"/>
	</g>
</g>
</svg>
