<?xml version="1.0" encoding="utf-8"?>
<!-- Generator: Adobe Illustrator 25.3.1, SVG Export Plug-In . SVG Version: 6.00 Build 0)  -->
<svg version="1.1" id="图层_1" xmlns="http://www.w3.org/2000/svg" xmlns:xlink="http://www.w3.org/1999/xlink" x="0px" y="0px"
	 viewBox="0 0 120 80" style="enable-background:new 0 0 120 80;" xml:space="preserve">
<style type="text/css">
	.st0{fill:#FFFFFF;}
	.st1{fill:#CFD3DB;}
	.st2{fill:#0065FF;}
	.st3{fill:#EBECF0;}
	.st4{fill:#FF5630;}
	.st5{fill:#FFAB00;}
	.st6{fill:#2684FF;}
	.st7{fill:url(#SVGID_1_);}
	.st8{clip-path:url(#SVGID_3_);}
	.st9{fill:#FFFFFF;fill-opacity:1.000000e-02;}
	.st10{fill:#172B4D;}
	.st11{fill:url(#SVGID_4_);}
	.st12{fill:url(#SVGID_5_);}
	.st13{fill:url(#SVGID_6_);}
	.st14{fill:url(#SVGID_7_);}
	.st15{fill:url(#SVGID_8_);}
	.st16{fill:url(#SVGID_9_);}
	.st17{fill:url(#SVGID_10_);}
	.st18{fill:#00C7E5;}
	.st19{fill:url(#SVGID_11_);}
	.st20{fill:#00A3BF;}
	.st21{fill:url(#SVGID_12_);}
</style>
<rect class="st0" width="120" height="80"/>
<path class="st1" d="M0,4c0-2.2,1.8-4,4-4h112c2.2,0,4,1.8,4,4v72c0,2.2-1.8,4-4,4H4c-2.2,0-4-1.8-4-4V4z"/>
<path class="st2" d="M0,4c0-2.2,1.8-4,4-4h12v80H4c-2.2,0-4-1.8-4-4V4z"/>
<path class="st3" d="M0,4c0-2.2,1.8-4,4-4h112c2.2,0,4,1.8,4,4v4H0V4z"/>
<path class="st4" d="M4,2L4,2c1.1,0,2,0.9,2,2l0,0c0,1.1-0.9,2-2,2l0,0C2.9,6,2,5.1,2,4l0,0C2,2.9,2.9,2,4,2z"/>
<path class="st5" d="M10,2L10,2c1.1,0,2,0.9,2,2l0,0c0,1.1-0.9,2-2,2l0,0C8.9,6,8,5.1,8,4l0,0C8,2.9,8.9,2,10,2z"/>
<path class="st6" d="M16,2L16,2c1.1,0,2,0.9,2,2l0,0c0,1.1-0.9,2-2,2l0,0c-1.1,0-2-0.9-2-2l0,0C14,2.9,14.9,2,16,2z"/>
<linearGradient id="SVGID_1_" gradientUnits="userSpaceOnUse" x1="68" y1="67" x2="68" y2="2" gradientTransform="matrix(1 0 0 -1 0 82)">
	<stop  offset="0" style="stop-color:#EBECF0"/>
	<stop  offset="1" style="stop-color:#EBECF0;stop-opacity:0"/>
</linearGradient>
<path class="st7" d="M16,80V32.2c11.5,4.5,27.5-0.5,53-9c20.4-6.8,42.7-9.1,51-8V76c0,2.2-1.8,4-4,4H16z"/>
<g>
	<defs>
		<rect id="SVGID_2_" x="42" y="18" width="48" height="48.9"/>
	</defs>
	<clipPath id="SVGID_3_">
		<use xlink:href="#SVGID_2_"  style="overflow:visible;"/>
	</clipPath>
	<g class="st8">
		<rect x="42" y="18" class="st9" width="48" height="48.9"/>
		<path class="st10" d="M64.2,58.7L64.2,58.7l-3.8-6L58,49c1.5,0.4,3.1,0.7,4.7,0.8c1,0.1,2.1,0.1,3.3,0.1c3.2,0,6-0.4,7.9-0.9
			l-6.1,9.5v7.9c-0.1,0.3-0.9,0.5-1.8,0.5s-1.7-0.2-1.8-0.5L64.2,58.7z"/>
		
			<linearGradient id="SVGID_4_" gradientUnits="userSpaceOnUse" x1="56.5304" y1="38.6362" x2="62.3891" y2="29.4048" gradientTransform="matrix(1 0 0 -1 0 82)">
			<stop  offset="0" style="stop-color:#C1C7D0"/>
			<stop  offset="1" style="stop-color:#C1C7D0;stop-opacity:0.1"/>
		</linearGradient>
		<path class="st11" d="M60.4,52.7c0.6-0.6,1.2-1.3,1.7-1.9c0.3-0.3,0.5-0.6,0.7-0.9c-1.6-0.1-3.1-0.4-4.7-0.8L60.4,52.7z"/>
		
			<linearGradient id="SVGID_5_" gradientUnits="userSpaceOnUse" x1="58.0925" y1="32.9642" x2="73.9079" y2="32.9642" gradientTransform="matrix(1 0 0 -1 0 82)">
			<stop  offset="0.19" style="stop-color:#172B4D"/>
			<stop  offset="1" style="stop-color:#344563"/>
		</linearGradient>
		<path class="st12" d="M73.9,49c0,0.1,0,0.2-0.1,0.3C73.2,50.3,69.9,51,66,51c-3.9,0-7.2-0.7-7.8-1.7c-0.1-0.1-0.1-0.2-0.1-0.3
			c0-1.1,3.5-2,7.9-2C70.4,47.1,73.9,47.9,73.9,49z"/>
		
			<linearGradient id="SVGID_6_" gradientUnits="userSpaceOnUse" x1="64.1062" y1="29.7045" x2="67.8729" y2="36.23" gradientTransform="matrix(1 0 0 -1 0 82)">
			<stop  offset="0.19" style="stop-color:#091E42"/>
			<stop  offset="1" style="stop-color:#253858"/>
		</linearGradient>
		<path class="st13" d="M73.1,49c0,0.1,0,0.2-0.1,0.2c-0.5,0.7-3.5,1.2-7,1.2c-3.6,0-6.5-0.5-7-1.2c0-0.1-0.1-0.1-0.1-0.2
			c0-0.8,3.2-1.4,7.1-1.4C69.9,47.6,73.1,48.2,73.1,49z"/>
		<path class="st2" d="M56,46.3c0.8,1.2,5,2.1,10,2.1s9.3-0.9,10-2.1l4.6-7.4c-2.8,1.3-8.3,2.2-14.6,2.2c-6.3,0-11.8-0.9-14.6-2.2
			l4.3,6.9L56,46.3z"/>
		
			<linearGradient id="SVGID_7_" gradientUnits="userSpaceOnUse" x1="-99.4658" y1="533.23" x2="365.6622" y2="-901.491" gradientTransform="matrix(1 0 0 -1 0 82)">
			<stop  offset="0" style="stop-color:#C1C7D0"/>
			<stop  offset="1" style="stop-color:#C1C7D0;stop-opacity:0.1"/>
		</linearGradient>
		<path class="st14" d="M68.2,41.1c-2.2,3-3.2,5.1-4.5,7.3c-4-0.2-7.1-1.1-7.7-2.1l-0.3-0.5l-4.3-6.9c2.8,1.3,8.3,2.2,14.6,2.2
			L68.2,41.1z"/>
		
			<linearGradient id="SVGID_8_" gradientUnits="userSpaceOnUse" x1="56.5304" y1="38.6362" x2="62.3891" y2="29.4048" gradientTransform="matrix(1 0 0 -1 0 82)">
			<stop  offset="0" style="stop-color:#C1C7D0"/>
			<stop  offset="1" style="stop-color:#C1C7D0;stop-opacity:0.1"/>
		</linearGradient>
		<path class="st15" d="M60.4,52.7c0.6-0.6,1.2-1.3,1.7-1.9c0.3-0.3,0.5-0.6,0.7-0.9c-1.6-0.1-3.1-0.4-4.7-0.8L60.4,52.7z"/>
		
			<linearGradient id="SVGID_9_" gradientUnits="userSpaceOnUse" x1="51.3727" y1="43.3474" x2="80.6022" y2="43.3474" gradientTransform="matrix(1 0 0 -1 0 82)">
			<stop  offset="0.19" style="stop-color:#0052CC"/>
			<stop  offset="1" style="stop-color:#2684FF"/>
		</linearGradient>
		<path class="st16" d="M80.6,38.7c0,0.2-0.1,0.4-0.2,0.6c-1.1,1.7-7.1,3.1-14.4,3.1c-7.3,0-13.4-1.3-14.5-3.1
			c-0.1-0.2-0.2-0.4-0.2-0.6c0-2,6.5-3.7,14.6-3.7C74.1,35,80.6,36.6,80.6,38.7z"/>
		
			<linearGradient id="SVGID_10_" gradientUnits="userSpaceOnUse" x1="62.3775" y1="37.0831" x2="69.6205" y2="49.6288" gradientTransform="matrix(1 0 0 -1 0 82)">
			<stop  offset="0.19" style="stop-color:#0049B0"/>
			<stop  offset="1" style="stop-color:#0052CC"/>
		</linearGradient>
		<path class="st17" d="M79.7,38.7c0,0.1-0.1,0.3-0.2,0.4c-1,1.3-6.7,2.3-13.5,2.3c-6.8,0-12.5-1-13.5-2.3c-0.1-0.1-0.2-0.3-0.2-0.4
			c0-1.5,6.1-2.8,13.7-2.8S79.7,37.1,79.7,38.7z"/>
		<path class="st18" d="M90,24c0,0.3-0.1,0.6-0.3,0.9C87.9,27.8,78,30,66,30s-21.9-2.2-23.7-5.1C42.1,24.6,42,24.3,42,24
			c0-3.3,10.7-6,24-6S90,20.7,90,24z"/>
		
			<linearGradient id="SVGID_11_" gradientUnits="userSpaceOnUse" x1="60.0511" y1="47.6975" x2="71.9512" y2="68.3042" gradientTransform="matrix(1 0 0 -1 0 82)">
			<stop  offset="0.19" style="stop-color:#008DA6"/>
			<stop  offset="1" style="stop-color:#00B8D9"/>
		</linearGradient>
		<path class="st19" d="M88.5,24c0,0.3-0.1,0.5-0.3,0.7c-1.7,2.1-11,3.8-22.2,3.8s-20.5-1.7-22.2-3.8c-0.2-0.2-0.3-0.4-0.3-0.7
			c0-2.5,10.1-4.5,22.5-4.5C78.4,19.5,88.5,21.5,88.5,24z"/>
		<path class="st20" d="M83.6,35l6.1-10C87.9,27.8,78,30,66,30s-21.9-2.2-23.7-5.1l6.2,10c1.3,2.1,8.7,3.8,17.6,3.8
			C74.9,38.7,82.3,37.1,83.6,35"/>
		
			<linearGradient id="SVGID_12_" gradientUnits="userSpaceOnUse" x1="-445.3701" y1="2779.4172" x2="315.571" y2="-1292.8229" gradientTransform="matrix(1 0 0 -1 0 82)">
			<stop  offset="0" style="stop-color:#C1C7D0"/>
			<stop  offset="1" style="stop-color:#C1C7D0;stop-opacity:0.1"/>
		</linearGradient>
		<path class="st21" d="M70.2,38.6c5-5.8,10.2-9.1,14.7-10.9C80.5,29.1,73.7,30,66,30c-12,0-21.9-2.2-23.7-5.1l6.2,10
			c1.3,2.1,8.7,3.8,17.6,3.8C67.5,38.7,68.9,38.7,70.2,38.6z"/>
	</g>
</g>
</svg>
