<svg viewBox="0 0 144 80" xmlns="http://www.w3.org/2000/svg" xmlns:xlink="http://www.w3.org/1999/xlink"><defs><rect id="a" width="120" height="80" rx="3"/><rect id="c" width="104" height="72" rx="3"/><linearGradient x1="82.14%" y1="-16.212%" x2="50%" y2="100%" id="d"><stop stop-color="#F1F2F4" offset="0%"/><stop stop-color="#C1C7D0" offset="100%"/></linearGradient></defs><g transform="translate(12)" fill="none" fill-rule="evenodd"><mask id="b" fill="#fff"><use xlink:href="#a"/></mask><use fill="#CFD3DB" xlink:href="#a"/><g mask="url(#b)"><g transform="translate(16 8)"><mask id="e" fill="#fff"><use xlink:href="#c"/></mask><use fill="#CFD3DB" xlink:href="#c"/><path d="M126 14.378c-13.897-10.986-64.5-7-94 6s-66-2.5-66-2.5l10.5 62.5 129.5-1.5s33.897-53.514 20-64.5z" fill="url(#d)" mask="url(#e)"/></g></g><g mask="url(#b)"><g transform="translate(25 17)"><rect fill="#FFF" width="88" height="54" rx="2"/><rect fill="#FFAB00" x="3" y="3" width="6" height="6" rx="3"/><path d="M13 6c0-.552.455-1 1-1h34c.552 0 1 .444 1 1 0 .552-.455 1-1 1H14c-.552 0-1-.444-1-1zm40 0c0-.552.453-1 .997-1h6.006c.55 0 .997.444.997 1 0 .552-.453 1-.997 1h-6.006A.996.996 0 0 1 53 6zm12 0c0-.552.445-1 .993-1h16.014c.548 0 .993.444.993 1 0 .552-.445 1-.993 1H65.993A.994.994 0 0 1 65 6z" fill="#DFE2E7"/><rect fill="#36B37E" x="3" y="13" width="6" height="6" rx="3"/><path d="M13 16c0-.552.455-1 1-1h34c.552 0 1 .444 1 1 0 .552-.455 1-1 1H14c-.552 0-1-.444-1-1zm40 0c0-.552.453-1 .997-1h6.006c.55 0 .997.444.997 1 0 .552-.453 1-.997 1h-6.006A.996.996 0 0 1 53 16zm12 0c0-.552.445-1 .993-1h16.014c.548 0 .993.444.993 1 0 .552-.445 1-.993 1H65.993A.994.994 0 0 1 65 16z" fill="#DFE2E7"/><rect fill="#36B37E" x="3" y="23" width="6" height="6" rx="3"/><path d="M13 26c0-.552.455-1 1-1h34c.552 0 1 .444 1 1 0 .552-.455 1-1 1H14c-.552 0-1-.444-1-1zm40 0c0-.552.453-1 .997-1h6.006c.55 0 .997.444.997 1 0 .552-.453 1-.997 1h-6.006A.996.996 0 0 1 53 26zm12 0c0-.552.445-1 .993-1h16.014c.548 0 .993.444.993 1 0 .552-.445 1-.993 1H65.993A.994.994 0 0 1 65 26z" fill="#DFE2E7"/><rect fill="#FFAB00" x="3" y="33" width="6" height="6" rx="3"/><path d="M13 36c0-.552.455-1 1-1h34c.552 0 1 .444 1 1 0 .552-.455 1-1 1H14c-.552 0-1-.444-1-1zm40 0c0-.552.453-1 .997-1h6.006c.55 0 .997.444.997 1 0 .552-.453 1-.997 1h-6.006A.996.996 0 0 1 53 36zm12 0c0-.552.445-1 .993-1h16.014c.548 0 .993.444.993 1 0 .552-.445 1-.993 1H65.993A.994.994 0 0 1 65 36z" fill="#DFE2E7"/><rect fill="#FF5630" x="3" y="43" width="6" height="6" rx="3"/><path d="M13 46c0-.552.455-1 1-1h34c.552 0 1 .444 1 1 0 .552-.455 1-1 1H14c-.552 0-1-.444-1-1zm40 0c0-.552.453-1 .997-1h6.006c.55 0 .997.444.997 1 0 .552-.453 1-.997 1h-6.006A.996.996 0 0 1 53 46zm12 0c0-.552.445-1 .993-1h16.014c.548 0 .993.444.993 1 0 .552-.445 1-.993 1H65.993A.994.994 0 0 1 65 46z" fill="#DFE2E7"/></g></g><path fill="#0065FF" mask="url(#b)" d="M0 0h16v80H0z"/><g mask="url(#b)"><path fill="#DFE1E6" d="M0 0h120v8H0z"/><circle fill="#FF5630" cx="4" cy="4" r="2"/><circle fill="#FFC400" cx="10" cy="4" r="2"/><circle fill="#0065FF" cx="16" cy="4" r="2"/></g></g></svg>