<?xml version="1.0" encoding="utf-8"?>
<!-- Generator: Adobe Illustrator 25.3.1, SVG Export Plug-In . SVG Version: 6.00 Build 0)  -->
<svg version="1.1" id="图层_1" xmlns="http://www.w3.org/2000/svg" xmlns:xlink="http://www.w3.org/1999/xlink" x="0px" y="0px"
	 viewBox="0 0 120 80" style="enable-background:new 0 0 120 80;" xml:space="preserve">
<style type="text/css">
	.st0{fill:#FFFFFF;}
	.st1{fill:#CFD3DB;}
	.st2{fill:#0065FF;}
	.st3{fill:#EBECF0;}
	.st4{fill:#FF5630;}
	.st5{fill:#FFAB00;}
	.st6{fill:#2684FF;}
	.st7{fill:url(#SVGID_1_);}
	.st8{clip-path:url(#SVGID_3_);}
	.st9{fill:#FFFFFF;fill-opacity:1.000000e-02;}
	.st10{fill:#0049B0;}
	.st11{fill:#0057D8;}
	.st12{fill:url(#SVGID_4_);}
	.st13{fill:#FF5230;}
</style>
<rect class="st0" width="120" height="80"/>
<path class="st1" d="M0,4c0-2.2,1.8-4,4-4h112c2.2,0,4,1.8,4,4v72c0,2.2-1.8,4-4,4H4c-2.2,0-4-1.8-4-4V4z"/>
<path class="st2" d="M0,4c0-2.2,1.8-4,4-4h12v80H4c-2.2,0-4-1.8-4-4V4z"/>
<path class="st3" d="M0,4c0-2.2,1.8-4,4-4h112c2.2,0,4,1.8,4,4v4H0V4z"/>
<path class="st4" d="M4,2L4,2c1.1,0,2,0.9,2,2l0,0c0,1.1-0.9,2-2,2l0,0C2.9,6,2,5.1,2,4l0,0C2,2.9,2.9,2,4,2z"/>
<path class="st5" d="M10,2L10,2c1.1,0,2,0.9,2,2l0,0c0,1.1-0.9,2-2,2l0,0C8.9,6,8,5.1,8,4l0,0C8,2.9,8.9,2,10,2z"/>
<path class="st6" d="M16,2L16,2c1.1,0,2,0.9,2,2l0,0c0,1.1-0.9,2-2,2l0,0c-1.1,0-2-0.9-2-2l0,0C14,2.9,14.9,2,16,2z"/>
<linearGradient id="SVGID_1_" gradientUnits="userSpaceOnUse" x1="68" y1="67" x2="68" y2="2" gradientTransform="matrix(1 0 0 -1 0 82)">
	<stop  offset="0" style="stop-color:#EBECF0"/>
	<stop  offset="1" style="stop-color:#EBECF0;stop-opacity:0"/>
</linearGradient>
<path class="st7" d="M16,80V32.2c11.5,4.5,27.5-0.5,53-9c20.4-6.8,42.7-9.1,51-8V76c0,2.2-1.8,4-4,4H16z"/>
<g>
	<defs>
		<rect id="SVGID_2_" x="42" y="13" width="48" height="54"/>
	</defs>
	<clipPath id="SVGID_3_">
		<use xlink:href="#SVGID_2_"  style="overflow:visible;"/>
	</clipPath>
	<g class="st8">
		<rect x="42" y="13" class="st9" width="48" height="54"/>
		<path class="st10" d="M58.8,24.9l7.2,4.9l7.2-4.9l8,3.1v36.8c-2.4,1.4-5.1,2.1-7.8,2.2c-5.5,0.1-8-2.9-14-3.3
			c-2.9-0.2-5.8,0.2-8.6,1.1V28L58.8,24.9z"/>
		<path class="st0" d="M80.8,29.8L68,24.8c-1.3-0.5-2.7-0.5-4,0l-12.8,4.9l-0.8-1.6l12.8-5c1.8-0.7,3.8-0.7,5.6,0l12.8,5L80.8,29.8z
			"/>
		<path class="st11" d="M42,45.1h8.8V28c-2,0.9-3.8,2.4-5.2,4.1c-1.4,1.8-2.3,3.8-2.7,6L42,45.1z"/>
		<path class="st5" d="M42.6,41h8.3v-0.4h-8.2L42.6,41z"/>
		<path class="st5" d="M50.8,42.7h-8.5l0,0.4h8.6V42.7z"/>
		<path class="st11" d="M90,45.1h-8.8V28c2,0.9,3.8,2.4,5.2,4.1c1.4,1.8,2.3,3.8,2.7,6L90,45.1z"/>
		<path class="st5" d="M81.2,41h8.3l-0.1-0.4h-8.2V41z"/>
		<path class="st5" d="M89.7,42.7h-8.5v0.4h8.6L89.7,42.7z"/>
		
			<linearGradient id="SVGID_4_" gradientUnits="userSpaceOnUse" x1="49.2006" y1="18.7718" x2="82.7994" y2="52.3684" gradientTransform="matrix(1 0 0 -1 0 82)">
			<stop  offset="0" style="stop-color:#0057D8"/>
			<stop  offset="1" style="stop-color:#3384FF"/>
		</linearGradient>
		<path class="st12" d="M73.2,24.9L66,29.8l-7.2-4.9l-8,3.1v36.8c2.4,1.4,5.1,2.1,7.8,2.2c5.5,0.1,8-2.9,14-3.3
			c2.9-0.2,5.8,0.2,8.6,1.1V28L73.2,24.9z"/>
		<path class="st11" d="M66,29.8l-7.2-4.9L56,26l10,6.8L76,26l-2.8-1.1L66,29.8z"/>
		<path class="st13" d="M73.2,24.9L66,29.8L73.2,24.9z"/>
		<path class="st13" d="M58.8,24.9l7.2,4.9L58.8,24.9z"/>
		<path class="st5" d="M81.2,60.4c-2.8-1-5.7-1.3-8.6-1.1c-2.9,0.2-5,1-7,1.8c-2,0.8-4.2,1.6-7,1.5c-2.8,0-5.2-0.8-7.7-2.1h-0.1v0.5
			c2.6,1.4,5.2,2.1,7.8,2.1h0.2c2.8,0,4.8-0.8,6.9-1.6c2.1-0.8,4-1.5,6.9-1.7c2.8-0.2,5.6,0.2,8.5,1.1h0.1V60.4z"/>
		<path class="st5" d="M72.6,56.8c-2.9,0.2-5,1-7,1.8c-2,0.8-4.2,1.6-7,1.5c-2.8-0.1-5.2-0.7-7.7-2.1h-0.1v0.5
			c2.6,1.4,5.2,2.1,7.8,2.1h0.2c2.8,0,4.8-0.8,6.9-1.6c2.1-0.8,4-1.5,6.9-1.7c2.9-0.2,5.7,0.2,8.5,1.1h0.1v-0.5
			C78.4,57,75.5,56.6,72.6,56.8L72.6,56.8z"/>
		<path class="st0" d="M66,24.2c-0.1,0-0.2,0-0.3-0.1c-0.1,0-0.2-0.1-0.3-0.2c-0.1-0.1-0.1-0.2-0.2-0.3c0-0.1-0.1-0.2-0.1-0.3v-2.2
			c0-0.5,0.2-1.1,0.5-1.5c0.3-0.5,0.7-0.8,1.2-1c0.4-0.2,0.8-0.5,1-0.9c0.2-0.4,0.3-0.9,0.2-1.3c-0.1-0.5-0.3-0.9-0.7-1.2
			c-0.3-0.3-0.8-0.5-1.2-0.5c-0.3,0-0.6,0-0.8,0.1c-0.3,0.1-0.5,0.3-0.7,0.5c-0.2,0.2-0.4,0.4-0.5,0.7c-0.1,0.3-0.2,0.5-0.2,0.8
			c0,0.2-0.1,0.4-0.3,0.6s-0.4,0.3-0.6,0.3c-0.2,0-0.4-0.1-0.6-0.3c-0.2-0.2-0.2-0.4-0.2-0.6c0-0.5,0.1-1,0.3-1.5s0.5-0.9,0.9-1.2
			c0.5-0.5,1.2-0.8,1.9-1c0.7-0.1,1.5-0.1,2.1,0.2c0.7,0.3,1.3,0.7,1.7,1.3c0.4,0.6,0.7,1.3,0.7,2c0,0.8-0.2,1.5-0.6,2.2
			c-0.4,0.7-1,1.2-1.7,1.5c-0.2,0.1-0.3,0.2-0.5,0.4c-0.1,0.2-0.2,0.4-0.2,0.6v2.2c0,0.2-0.1,0.4-0.2,0.6
			C66.5,24.1,66.2,24.2,66,24.2z"/>
		<path class="st5" d="M68.6,53h-3.3c-0.1,0-0.1,0-0.2-0.1s-0.1-0.1-0.1-0.2V42.5h-3.5c-0.1,0-0.1,0-0.2-0.1s-0.1-0.1-0.1-0.2v-2.2
			c0,0,0-0.1,0-0.1c0,0,0-0.1,0-0.1c0,0,0,0,0.1,0c0,0,0.1,0,0.1,0c2.1,0,3.7-1.1,4-2.8c0,0,0-0.1,0.1-0.1c0,0,0.1-0.1,0.1-0.1h2.9
			c0.1,0,0.1,0,0.2,0.1s0.1,0.1,0.1,0.2v15.7c0,0.1,0,0.1-0.1,0.2C68.7,53,68.7,53,68.6,53L68.6,53z M65.5,52.6h2.9V37.3h-2.5
			c-0.4,1.7-2,2.8-4.1,2.9v1.8h3.5c0,0,0.1,0,0.1,0c0,0,0.1,0,0.1,0c0,0,0,0,0,0.1c0,0,0,0.1,0,0.1V52.6z"/>
	</g>
</g>
</svg>
