<?xml version="1.0" standalone="no"?><!DOCTYPE svg PUBLIC "-//W3C//DTD SVG 1.1//EN" "http://www.w3.org/Graphics/SVG/1.1/DTD/svg11.dtd"><svg t="1670306506084" class="icon" viewBox="0 0 1024 1024" version="1.1" xmlns="http://www.w3.org/2000/svg" p-id="1505" xmlns:xlink="http://www.w3.org/1999/xlink" width="200" height="200"><path d="M862 902c0 16.569-13.431 30-30 30H192c-16.569 0-30-13.431-30-30V122c0-16.569 13.431-30 30-30h476l194 194v616z" fill="#4895FF" p-id="1506"></path><path d="M862 286H698c-16.569 0-30-13.431-30-30V92" fill="#FFFFFF" fill-opacity=".296" p-id="1507"></path><path d="M361.81 703h93.1l53.41-215.6h2.94L563.69 703h93.1l77.91-340.06h-76.93l-49.98 251.37h-2.94l-49-218.54h-86.24l-51.94 218.54h-2.94l-49-251.37h-77.91z" fill="#FFFFFF" p-id="1508"></path></svg>